<?xml version="1.0" standalone="no"?>
<!DOCTYPE svg PUBLIC "-//W3C//DTD SVG 20010904//EN"
 "http://www.w3.org/TR/2001/REC-SVG-20010904/DTD/svg10.dtd">
<svg version="1.0" xmlns="http://www.w3.org/2000/svg"
 width="963.000000pt" height="727.000000pt" viewBox="0 0 963.000000 727.000000"
 preserveAspectRatio="xMidYMid meet">
<metadata>
Created by potrace 1.16, written by Peter Selinger 2001-2019
</metadata>
<g transform="translate(0.000000,727.000000) scale(0.100000,-0.100000)"
fill="#000000" stroke="none">
<path d="M4575 7163 c-457 -59 -830 -295 -1069 -677 -28 -45 -60 -100 -70
-124 l-19 -42 -264 0 -263 0 0 -968 0 -968 83 -32 c45 -18 88 -32 95 -32 9 0
12 188 12 905 l0 905 231 0 230 0 11 30 c50 144 170 331 287 450 242 244 547
370 894 370 336 0 631 -123 873 -364 134 -134 229 -278 289 -438 l18 -48 233
0 234 0 2 -908 3 -908 90 35 90 36 0 965 0 965 -265 3 -265 3 -38 77 c-173
350 -544 640 -932 730 -163 38 -361 52 -490 35z"/>
<path d="M4550 6893 c-416 -63 -783 -364 -920 -753 -13 -36 -26 -68 -29 -72
-4 -4 -106 -8 -229 -8 l-222 -1 0 -888 0 -888 63 -28 c34 -15 68 -29 75 -32 9
-4 12 168 12 838 l0 844 193 -1 c105 0 200 1 209 4 11 2 21 22 27 54 18 83 74
219 126 306 118 198 334 369 555 440 120 38 181 47 330 46 123 -1 160 -6 245
-28 361 -96 660 -401 735 -751 8 -33 15 -62 18 -65 2 -3 97 -5 210 -5 l207 -1
5 -841 5 -841 60 25 c33 14 66 30 73 35 9 8 12 198 12 888 0 812 -1 878 -17
884 -9 4 -107 6 -217 6 -111 0 -206 -1 -212 0 -6 0 -17 19 -24 42 -18 63 -93
214 -141 286 -55 84 -180 215 -271 284 -249 189 -568 269 -878 221z"/>
<path d="M4620 6631 c-315 -46 -583 -244 -709 -523 -36 -78 -58 -153 -74 -249
l-12 -74 -202 -3 -203 -2 0 -809 0 -809 40 -16 c22 -9 43 -16 45 -16 3 0 6
350 7 778 l3 777 203 3 202 2 0 48 c2 314 181 597 465 732 122 58 199 74 345
74 144 0 234 -21 353 -80 131 -66 218 -141 303 -260 90 -126 133 -250 141
-411 l6 -103 203 0 204 0 0 -780 c0 -495 4 -780 10 -780 5 0 25 8 45 17 l35
17 0 808 0 808 -202 2 -203 3 -7 67 c-33 296 -256 591 -536 709 -149 62 -328
89 -462 70z"/>
<path d="M1805 4087 c-15 -28 -36 -63 -46 -77 -41 -60 -32 -154 20 -197 41
-35 110 -75 120 -68 5 3 20 0 33 -5 22 -10 22 -10 -4 -5 -16 3 -28 3 -28 1 0
-2 39 -26 86 -53 47 -26 102 -58 122 -70 20 -13 43 -26 51 -29 8 -4 63 -36
123 -71 60 -35 116 -63 124 -63 7 0 14 -4 14 -9 0 -5 24 -23 53 -38 92 -51
131 -74 180 -106 40 -25 51 -28 59 -16 8 12 9 12 5 -1 -2 -9 9 -23 27 -34 78
-48 117 -66 128 -60 7 4 8 3 4 -4 -4 -7 10 -20 36 -33 24 -12 45 -24 48 -28 3
-3 21 -14 40 -25 62 -32 135 -74 251 -142 177 -104 351 -204 354 -204 2 0 33
-19 71 -41 121 -74 152 -89 171 -83 12 4 14 3 6 -3 -16 -11 109 -85 130 -77 8
3 18 1 22 -5 4 -7 -1 -8 -12 -4 -16 6 -16 5 -4 -10 7 -9 18 -17 24 -17 5 0 64
-32 131 -72 67 -39 146 -85 176 -102 30 -17 69 -39 85 -49 17 -10 46 -26 65
-35 19 -9 40 -21 45 -25 6 -4 55 -34 110 -67 97 -57 100 -58 129 -43 23 12 26
17 15 25 -10 7 -8 8 9 3 14 -4 32 0 50 12 40 26 225 135 342 201 25 14 62 36
82 49 21 13 62 36 90 52 156 84 268 151 268 158 0 2 -6 1 -12 -3 -7 -4 -10 -3
-6 1 5 5 20 10 35 11 14 2 29 7 32 11 3 4 29 20 56 35 28 15 49 33 47 39 -1 6
2 8 7 5 8 -5 46 14 206 106 28 16 61 34 75 41 14 6 30 15 35 20 6 4 89 53 185
109 282 161 329 190 341 204 6 8 17 14 23 14 12 0 70 31 171 91 28 16 59 34
70 40 11 5 36 20 57 32 31 19 138 81 302 176 23 13 73 42 111 64 85 50 130 75
216 122 58 32 158 107 119 90 -8 -4 -4 2 9 13 19 15 25 32 29 76 3 37 1 56 -7
56 -6 0 -11 8 -11 19 0 10 -8 29 -18 42 -10 13 -22 33 -26 44 -6 16 -9 17 -17
5 -9 -12 -10 -12 -5 3 3 10 1 27 -5 38 -10 20 -11 20 -37 3 -15 -10 -39 -24
-55 -32 -15 -7 -24 -18 -21 -24 4 -6 2 -8 -3 -5 -14 9 -239 -121 -235 -134 1
-6 -2 -8 -8 -4 -6 4 -23 -1 -37 -10 -15 -10 -54 -32 -87 -50 -34 -18 -124 -69
-201 -115 -77 -45 -169 -98 -205 -118 -36 -19 -70 -41 -76 -48 -6 -8 -17 -14
-25 -14 -8 0 -25 -9 -39 -20 -14 -11 -28 -20 -32 -20 -4 0 -50 -25 -102 -56
-66 -38 -93 -60 -89 -70 3 -8 0 -14 -7 -14 -6 0 -8 5 -5 10 3 6 -1 10 -9 10
-17 0 -30 -16 -19 -23 5 -2 2 -2 -4 -1 -10 3 -135 -65 -233 -127 -8 -5 -49
-28 -90 -50 -41 -23 -78 -47 -82 -53 -4 -6 -8 -8 -8 -4 0 4 -22 -5 -48 -21
-26 -15 -68 -39 -93 -53 -97 -55 -119 -68 -156 -91 -21 -13 -48 -27 -60 -31
-13 -4 -23 -11 -23 -16 0 -4 -8 -10 -17 -14 -18 -6 -47 -22 -118 -67 -22 -14
-60 -36 -85 -48 -82 -41 -168 -96 -190 -121 -12 -14 -19 -19 -15 -12 3 6 4 12
0 12 -8 0 -215 -119 -225 -130 -3 -3 -10 -6 -17 -7 -7 -2 -42 -21 -78 -43
l-66 -41 -127 71 c-70 39 -134 75 -142 80 -8 4 -72 43 -142 85 -70 42 -132 73
-138 70 -6 -4 -9 -3 -8 2 2 4 -1 9 -6 10 -5 1 -12 5 -15 10 -14 21 -132 84
-143 77 -7 -4 -10 -3 -5 1 7 9 -198 134 -220 135 -7 0 -13 3 -13 8 0 9 -160
99 -168 94 -3 -2 -8 1 -11 6 -12 19 -113 72 -124 66 -7 -4 -9 -3 -4 1 7 9 -73
65 -93 65 -5 0 -10 4 -10 9 0 5 -8 11 -17 14 -10 3 -45 22 -78 41 -33 20 -67
39 -75 43 -8 4 -46 25 -85 48 -38 22 -77 44 -85 48 -8 4 -31 17 -52 29 -20 13
-114 68 -209 123 -95 55 -193 112 -218 127 -25 15 -71 40 -101 55 -30 16 -64
36 -74 45 -11 10 -28 21 -39 24 -11 3 -71 37 -133 75 -62 38 -116 69 -119 69
-3 0 -19 10 -34 21 -18 13 -34 18 -43 14 -7 -5 -10 -5 -6 0 9 10 -4 19 -93 68
l-66 37 -28 -53z"/>
<path d="M1850 3207 c-73 -37 -30 -207 132 -517 201 -386 404 -677 620 -886
143 -140 248 -213 423 -299 157 -77 281 -121 576 -204 268 -76 375 -115 531
-192 165 -82 187 -84 266 -26 80 59 206 198 237 260 24 50 27 66 22 118 -8 89
-46 157 -173 309 -188 224 -428 424 -740 617 -286 178 -556 293 -684 293 -110
0 -115 -52 -19 -189 83 -118 278 -312 560 -556 32 -27 54 -51 49 -53 -10 -4
-517 305 -632 384 -175 122 -282 217 -558 494 -281 283 -387 375 -485 423 -67
33 -96 38 -125 24z"/>
<path d="M7528 3206 c-124 -44 -234 -138 -574 -487 -310 -318 -427 -408 -919
-704 -126 -76 -233 -140 -237 -142 -27 -14 11 22 160 155 350 312 522 510 522
600 0 150 -493 -37 -961 -366 -273 -191 -537 -445 -654 -628 -48 -75 -78 -168
-71 -219 10 -63 62 -143 153 -233 96 -95 164 -142 205 -142 16 0 97 33 181 74
154 76 252 110 633 220 438 126 659 244 893 476 221 218 422 509 626 905 89
171 143 315 152 399 4 42 1 56 -17 79 -24 30 -38 32 -92 13z"/>
<path d="M6127 884 c-4 -4 -7 -64 -7 -133 l0 -125 -27 26 c-45 42 -75 56 -128
63 -101 14 -184 -31 -232 -125 -36 -71 -38 -170 -3 -243 65 -138 236 -177 349
-80 l41 35 0 -41 0 -41 40 0 40 0 -2 332 -3 333 -30 3 c-17 2 -34 0 -38 -4z
m-103 -248 c18 -8 46 -31 62 -52 24 -31 29 -48 32 -108 2 -59 -1 -77 -20 -111
-68 -116 -233 -111 -295 10 -25 48 -22 153 6 198 42 68 137 96 215 63z"/>
<path d="M1260 531 l0 -311 35 0 35 0 0 219 c0 121 4 222 9 225 5 3 25 -33 45
-79 20 -47 50 -113 65 -148 108 -236 98 -219 128 -215 23 3 32 14 68 98 23 52
53 120 67 150 14 30 38 84 53 120 16 36 32 69 37 75 4 5 8 -93 8 -218 l0 -227
40 0 40 0 -2 308 -3 307 -38 3 -38 3 -43 -93 c-24 -51 -74 -163 -111 -248 -38
-85 -72 -159 -77 -164 -4 -5 -14 6 -22 25 -8 19 -59 133 -114 254 l-99 220
-41 3 -42 3 0 -310z"/>
<path d="M4128 768 c-48 -133 -115 -321 -157 -436 l-40 -113 41 3 c40 3 41 3
65 71 l25 67 139 0 c103 0 141 -3 144 -12 45 -130 44 -128 87 -128 34 0 39 3
33 18 -3 9 -24 67 -45 127 -35 102 -137 384 -162 448 -9 24 -15 27 -57 27
l-47 0 -26 -72z m96 -80 c77 -210 92 -257 82 -261 -21 -7 -206 -6 -211 2 -2 4
18 72 45 151 28 79 50 145 50 146 0 2 4 4 9 4 5 0 16 -19 25 -42z"/>
<path d="M2168 706 c-79 -28 -124 -76 -152 -159 -20 -60 -20 -99 -1 -165 32
-106 114 -166 230 -166 124 -1 218 70 245 185 48 200 -134 372 -322 305z m166
-79 c123 -69 110 -277 -21 -333 -67 -29 -160 -5 -196 49 -43 65 -45 178 -4
238 47 68 146 89 221 46z"/>
<path d="M2736 705 c-103 -37 -159 -128 -153 -250 8 -148 94 -239 227 -239 74
0 117 18 162 67 l28 31 0 -47 0 -47 40 0 40 0 0 245 0 245 -40 0 -40 0 0 -41
0 -41 -42 36 c-64 55 -142 70 -222 41z m173 -75 c98 -49 121 -209 42 -293 -55
-61 -122 -73 -197 -36 -58 27 -85 74 -91 152 -8 114 59 197 159 197 29 0 65
-8 87 -20z"/>
<path d="M4708 706 c-109 -40 -158 -117 -158 -245 1 -135 73 -225 197 -246 97
-16 215 40 247 119 12 29 11 31 -8 37 -35 9 -61 -1 -78 -31 -25 -43 -71 -63
-135 -58 -97 8 -142 65 -143 181 0 82 17 126 62 161 66 50 193 26 223 -42 8
-18 18 -22 52 -22 l42 0 -11 30 c-12 36 -58 84 -101 107 -43 22 -143 27 -189
9z"/>
<path d="M5235 701 c-86 -40 -137 -124 -138 -226 0 -93 18 -143 72 -196 37
-37 57 -49 102 -59 75 -17 142 -1 198 47 l41 35 0 -41 0 -41 40 0 40 0 0 245
0 245 -40 0 -40 0 0 -41 0 -41 -39 35 c-64 58 -160 73 -236 38z m203 -78 c97
-71 97 -246 0 -315 -26 -18 -46 -23 -95 -23 -69 0 -101 17 -140 75 -33 47 -33
168 -1 213 43 62 75 78 151 74 38 -2 66 -10 85 -24z"/>
<path d="M6490 713 c-37 -6 -101 -53 -132 -98 -52 -75 -57 -209 -10 -289 69
-118 256 -149 361 -60 42 37 75 87 64 98 -4 3 -20 6 -36 6 -22 0 -39 -11 -66
-42 -35 -38 -42 -42 -98 -46 -93 -7 -160 39 -170 117 l-6 41 197 0 196 0 0 50
c0 127 -110 233 -236 229 -22 -1 -50 -4 -64 -6z m166 -93 c31 -30 54 -71 54
-100 0 -19 -5 -20 -156 -20 l-157 0 6 36 c7 40 27 67 72 96 44 28 144 21 181
-12z"/>
<path d="M7075 709 c-16 -4 -42 -20 -57 -34 -35 -32 -38 -31 -38 5 0 28 -2 30
-40 30 l-40 0 2 -242 3 -243 38 -3 37 -3 0 158 c0 180 13 229 69 257 45 24
122 21 156 -6 47 -37 55 -72 55 -248 l0 -161 38 3 37 3 5 170 c3 114 9 178 18
193 34 59 136 81 199 42 53 -32 63 -71 63 -252 l0 -159 38 3 37 3 3 153 c1 84
-2 170 -8 191 -42 159 -245 205 -343 79 l-25 -32 -28 34 c-51 60 -138 83 -219
59z"/>
<path d="M3170 701 c0 -4 43 -113 96 -242 l95 -233 -29 -76 c-17 -41 -38 -92
-46 -113 l-17 -38 42 3 41 3 143 350 143 350 -35 3 c-19 2 -37 1 -40 -1 -4 -5
-57 -140 -114 -292 -34 -91 -45 -107 -55 -79 -4 10 -38 99 -76 197 l-70 177
-39 0 c-21 0 -39 -4 -39 -9z"/>
<path d="M7785 688 c4 -13 20 -52 35 -88 56 -130 150 -368 150 -379 0 -6 -18
-54 -40 -107 -22 -53 -40 -100 -40 -105 0 -5 18 -9 40 -9 22 0 40 5 40 10 0 6
37 99 81 208 45 108 108 261 140 340 33 78 59 144 59 147 0 3 -17 5 -38 5
l-38 0 -68 -180 c-38 -98 -74 -187 -80 -196 -10 -13 -21 6 -66 122 -107 278
-90 249 -139 252 -41 3 -42 2 -36 -20z"/>
</g>
</svg>
